<svg xmlns="http://www.w3.org/2000/svg" viewBox="0 0 320 240" role="img" aria-labelledby="title desc">
  <title id="title">PS Docs product illustration</title>
  <desc id="desc">A structured document workspace with pages, folders, and collaborative review.</desc>
  <defs><filter id="s" x="-20%" y="-20%" width="140%" height="150%"><feDropShadow dx="0" dy="8" stdDeviation="7" flood-color="#0A2030" flood-opacity=".12"/></filter></defs>
  <circle cx="160" cy="120" r="98" fill="#E6F2F2"/>
  <g filter="url(#s)">
    <path d="M58 82h84l15 17h105v91H58Z" fill="#F4B740" stroke="#0A2030" stroke-width="4" stroke-linejoin="round"/>
    <path d="M91 38h116l32 32v111H91Z" fill="#FFFFFF" stroke="#0A2030" stroke-width="4" stroke-linejoin="round"/>
    <path d="M207 38v32h32" fill="#D3E6E6" stroke="#0A2030" stroke-width="4" stroke-linejoin="round"/>
    <path d="M113 91h95M113 112h95M113 133h74M113 154h89" stroke="#BFDADA" stroke-width="5" stroke-linecap="round"/>
    <rect x="111" y="78" width="59" height="8" rx="4" fill="#0097A7"/>
    <path d="m228 128 30 17-13 5-7 17Z" fill="#00E5C2" stroke="#0A2030" stroke-width="3" stroke-linejoin="round"/>
    <circle cx="83" cy="181" r="26" fill="#0A2030"/>
    <path d="M69 178h28M69 188h19" stroke="#FFFFFF" stroke-width="4" stroke-linecap="round"/>
    <circle cx="98" cy="166" r="7" fill="#00E5C2"/>
  </g>
</svg>
