<svg xmlns="http://www.w3.org/2000/svg" viewBox="0 0 320 240" role="img" aria-labelledby="title desc">
  <title id="title">PS Signatures product illustration</title>
  <desc id="desc">A branded email signature card inside a clean email composer.</desc>
  <defs><filter id="s" x="-20%" y="-20%" width="140%" height="150%"><feDropShadow dx="0" dy="8" stdDeviation="7" flood-color="#0A2030" flood-opacity=".12"/></filter></defs>
  <circle cx="160" cy="120" r="98" fill="#E6F2F2"/>
  <g filter="url(#s)">
    <rect x="37" y="45" width="246" height="150" rx="22" fill="#FFFFFF" stroke="#0A2030" stroke-width="4"/>
    <path d="M37 76h246" stroke="#0A2030" stroke-width="4"/>
    <circle cx="58" cy="60" r="5" fill="#FF7A66"/><circle cx="76" cy="60" r="5" fill="#F4B740"/><circle cx="94" cy="60" r="5" fill="#00E5C2"/>
    <path d="M57 94h120M57 108h88" stroke="#D3E6E6" stroke-width="5" stroke-linecap="round"/>
    <rect x="55" y="126" width="210" height="51" rx="13" fill="#F6FBFB" stroke="#0A2030" stroke-width="3"/>
    <rect x="55" y="126" width="11" height="51" rx="5" fill="#00E5C2"/>
    <circle cx="91" cy="151" r="16" fill="#0A2030"/>
    <circle cx="91" cy="146" r="6" fill="#00E5C2"/><path d="M80 160c3-7 9-10 11-10s8 3 11 10" fill="#0097A7"/>
    <path d="M118 140h64M118 151h48M118 163h78" stroke="#0A2030" stroke-width="3.5" stroke-linecap="round"/>
    <rect x="211" y="137" width="40" height="28" rx="14" fill="#0097A7"/>
    <path d="m222 151 6 6 12-13" fill="none" stroke="#FFFFFF" stroke-width="4" stroke-linecap="round" stroke-linejoin="round"/>
  </g>
  <circle cx="263" cy="42" r="17" fill="#7C5CFC" stroke="#FFFFFF" stroke-width="4"/><path d="M255 42h16M263 34v16" stroke="#FFFFFF" stroke-width="3" stroke-linecap="round"/>
</svg>
