<svg xmlns="http://www.w3.org/2000/svg" data-illustration-version="3" data-theme="dark" shape-rendering="geometricPrecision" viewBox="0 0 320 240" role="img" aria-labelledby="t d">
<title id="t">Peter.ai product diorama</title><desc id="d">An AI operator coordinating tasks from a dimensional command pedestal.</desc>
<defs><linearGradient id="g" x1="0" y1="0" x2="1" y2="1"><stop stop-color="#00E5C2"/><stop offset="1" stop-color="#00AFC0"/></linearGradient><filter id="s" x="-30%" y="-30%" width="160%" height="170%"><feDropShadow dx="0" dy="10" stdDeviation="8" flood-color="#000A10" flood-opacity=".34"/></filter></defs>
<g aria-hidden="true" class="v3-atmosphere">
  <ellipse cx="160" cy="205" rx="130" ry="19" fill="#00E5C2" opacity=".075"/>
  <circle cx="247" cy="69" r="50" fill="#9B84FF" opacity=".105"/>
  <path d="M54 193 160 132l106 31M76 205l105-61 83 24" fill="none" stroke="#69D9CC" stroke-width="1.5" opacity=".16" stroke-linecap="round"/>
</g>
<ellipse cx="162" cy="205" rx="105" ry="18" fill="#103744" opacity=".12"/>
<g filter="url(#s)"><ellipse cx="160" cy="180" rx="92" ry="31" fill="#103744"/><path d="M68 174v12c0 17 41 31 92 31s92-14 92-31v-12Z" fill="#0C2E3A"/><ellipse cx="160" cy="174" rx="92" ry="31" fill="url(#g)"/><ellipse cx="160" cy="174" rx="67" ry="19" fill="#12313D"/><ellipse cx="160" cy="174" rx="49" ry="12" fill="#28545D"/>
<path d="M117 77c0-22 18-40 40-40h6c22 0 40 18 40 40v64c0 22-18 40-40 40h-6c-22 0-40-18-40-40Z" fill="#163845" stroke="#BFE9E5" stroke-width="3"/><path d="M203 84 218 73v59l-15 11Z" fill="#2A5961"/><rect x="131" y="68" width="58" height="54" rx="18" fill="#103744"/><circle cx="150" cy="94" r="7" fill="#00E5C2"/><circle cx="173" cy="94" r="7" fill="#00E5C2"/><path d="M148 109c8 6 18 6 26 0" fill="none" stroke="#EAFBF8" stroke-width="3" stroke-linecap="round"/><path d="M160 37V23" stroke="#BFE9E5" stroke-width="3"/><circle cx="160" cy="19" r="7" fill="#00E5C2" stroke="#BFE9E5" stroke-width="3"/>
<path d="M140 145h40" stroke="#6EA8A6" stroke-width="5" stroke-linecap="round"/><circle cx="150" cy="158" r="5" fill="#78A4FF"/><circle cx="166" cy="158" r="5" fill="#9B84FF"/><circle cx="182" cy="158" r="5" fill="#FF927E"/></g>
<g filter="url(#s)"><path d="M37 81h62l12 12v44H37Z" fill="#163845"/><path d="M99 81v12h12" fill="#1A414C"/><circle cx="55" cy="105" r="8" fill="#00AFC0"/><path d="M70 99h25M70 110h18M50 124h43" stroke="#BFE9E5" stroke-width="3" stroke-linecap="round"/><path d="m53 105 3 3 6-7" fill="none" stroke="#EAFBF8" stroke-width="2.5" stroke-linecap="round" stroke-linejoin="round"/>
<rect x="218" y="72" width="66" height="55" rx="15" fill="#103744"/><path d="M234 105V91m14 14V83m14 22V94" stroke="#00E5C2" stroke-width="5" stroke-linecap="round"/><circle cx="270" cy="87" r="5" fill="#FFCA5E"/></g>
<!-- Peter.ai · V3 dark · native vector -->
</svg>
